<?xml version="1.0" encoding="utf-8"?>
<!-- Generator: Adobe Illustrator 16.0.0, SVG Export Plug-In . SVG Version: 6.00 Build 0)  -->
<!DOCTYPE svg PUBLIC "-//W3C//DTD SVG 1.1//EN" "http://www.w3.org/Graphics/SVG/1.1/DTD/svg11.dtd">
<svg version="1.1" id="socialicious" xmlns="http://www.w3.org/2000/svg" xmlns:xlink="http://www.w3.org/1999/xlink" x="0px"
	 y="0px" width="100px" height="100px" viewBox="0 0 100 100" enable-background="new 0 0 100 100" xml:space="preserve">
<path id="facebook_1_" fill="#357DED" d="M89.2,0H10.8C4.8,0,0,4.8,0,10.8v78.4c0,6,4.8,10.8,10.8,10.8h78.4c6,0,10.8-4.8,10.8-10.8
	V10.8C100,4.8,95.2,0,89.2,0z M65.8,53.4H54.4v30.3H42.9V53.4h-8V42.5h8c0,0,0-4.5,0-9.3c0-7.3,4.7-14,15.6-14
	c4.4,0,7.7,0.4,7.7,0.4L66,29.8c0,0-3.3,0-7,0c-3.9,0-4.6,1.8-4.6,4.8c0,0.4,0,0.5,0,0.5c0,0.8,0,2.9,0,7.4h11.8L65.8,53.4z"/>
</svg>
