<?xml version="1.0" encoding="utf-8"?>
<!-- Generator: Adobe Illustrator 16.0.0, SVG Export Plug-In . SVG Version: 6.00 Build 0)  -->
<!DOCTYPE svg PUBLIC "-//W3C//DTD SVG 1.1//EN" "http://www.w3.org/Graphics/SVG/1.1/DTD/svg11.dtd">
<svg version="1.1" id="socialicious" xmlns="http://www.w3.org/2000/svg" xmlns:xlink="http://www.w3.org/1999/xlink" x="0px"
	 y="0px" width="100px" height="100px" viewBox="0 0 100 100" enable-background="new 0 0 100 100" xml:space="preserve">
<path id="github_1_" fill="#963484" d="M89.2,0H10.8C4.8,0,0,4.8,0,10.8v78.4c0,6,4.8,10.8,10.8,10.8h78.4c6,0,10.8-4.8,10.8-10.8
	V10.8C100,4.8,95.2,0,89.2,0z M60.6,82.5c-1.699,0.3-2.3-0.7-2.3-1.6c0-1.104,0-4.7,0-9.2c0-3.101-1.1-5.101-2.3-6.2
	c7.4-0.8,15.2-3.6,15.2-16.5c0-3.6-1.3-6.6-3.4-9c0.3-0.8,1.5-4.2-0.3-8.8c0,0-2.8-0.9-9.2,3.4c-2.7-0.7-5.5-1.1-8.4-1.1
	c-2.8,0-5.7,0.4-8.3,1.1c-6.4-4.3-9.2-3.4-9.2-3.4c-1.8,4.6-0.7,8-0.3,8.8c-2.1,2.3-3.4,5.3-3.4,9c0,12.8,7.8,15.6,15.2,16.5
	c-1,0.8-1.8,2.3-2.1,4.5c-1.9,0.9-6.7,2.3-9.7-2.8c0,0-1.8-3.2-5.1-3.4c0,0-3.3,0-0.2,2c0,0,2.2,1,3.7,4.9c0,0,2,6,11.2,3.899
	c0,2.801,0,5.396,0,6.196c0,0.9-0.6,1.9-2.3,1.604C26.2,78,16.6,65.5,16.6,50.8c0-18.4,14.9-33.3,33.3-33.3s33.3,14.9,33.3,33.3
	C83.3,65.6,73.8,78,60.6,82.5z M41.5,71.5c0,0.3-0.2,0.5-0.6,0.6C40.5,72.2,40.2,72,40.1,71.7c0-0.3,0.2-0.5,0.6-0.601
	C41.1,71,41.5,71.2,41.5,71.5z M39,71.9c0,0.3-0.3,0.5-0.7,0.5c-0.4,0-0.7-0.2-0.7-0.5c0-0.301,0.3-0.5,0.7-0.5
	C38.7,71.4,39,71.6,39,71.9z M36.2,71.7C36.1,72,35.7,72.1,35.4,72c-0.4-0.1-0.6-0.4-0.5-0.7s0.5-0.399,0.8-0.3
	C36.1,71.1,36.3,71.4,36.2,71.7z M33.8,70.6c-0.2,0.2-0.6,0.104-0.9-0.1c-0.3-0.3-0.4-0.7-0.2-0.9c0.2-0.199,0.6-0.1,0.9,0.104
	C33.9,70.1,33.9,70.4,33.8,70.6z M32,68.8c-0.2,0.101-0.5,0-0.7-0.3c-0.2-0.3-0.2-0.7,0-0.8c0.2-0.101,0.5,0,0.7,0.3
	S32.2,68.6,32,68.8z M30.6,66.9c-0.2,0.1-0.5,0.1-0.7-0.2c-0.2-0.2-0.3-0.5-0.1-0.7c0.2-0.1,0.5-0.1,0.7,0.2
	C30.8,66.4,30.8,66.7,30.6,66.9z M29.3,65.4C29.2,65.6,29,65.6,28.7,65.5c-0.2-0.1-0.4-0.3-0.3-0.5s0.3-0.2,0.6-0.1
	C29.2,65,29.4,65.2,29.3,65.4z"/>
</svg>
