<?xml version="1.0" encoding="utf-8"?>
<!-- Generator: Adobe Illustrator 16.0.0, SVG Export Plug-In . SVG Version: 6.00 Build 0)  -->
<!DOCTYPE svg PUBLIC "-//W3C//DTD SVG 1.1//EN" "http://www.w3.org/Graphics/SVG/1.1/DTD/svg11.dtd">
<svg version="1.1" id="Layer_1" xmlns="http://www.w3.org/2000/svg" xmlns:xlink="http://www.w3.org/1999/xlink" x="0px" y="0px"
	 width="100px" height="100px" viewBox="0 0 100 100" enable-background="new 0 0 100 100" xml:space="preserve">
<path fill="#F03A47" d="M88,0H12C5.373,0,0,5.373,0,12v76c0,6.627,5.373,12,12,12h76c6.627,0,12-5.373,12-12V12
	C100,5.373,94.627,0,88,0z M22.902,74.998c-1.734,0-3.21-0.609-4.424-1.822c-1.215-1.215-1.824-2.689-1.824-4.426V40.364
	c0.437,0.35,1.107,0.936,2.018,1.759c0.912,0.825,1.628,1.411,2.147,1.759c2.039,1.389,5.13,3.396,9.271,6.021
	c4.144,2.625,7.213,4.633,9.208,6.022c4.252,2.994,7.807,4.49,10.669,4.49c2.863,0,6.42-1.496,10.672-4.49
	c2.299-1.563,5.582-3.711,9.856-6.446c4.271-2.734,7.146-4.578,8.622-5.533c1.431-0.869,2.816-2.062,4.162-3.582V68.75
	c0,1.736-0.607,3.211-1.823,4.426c-1.213,1.213-2.688,1.822-4.424,1.822H22.902z M81.23,36.232
	c-1.367,1.714-2.812,3.069-4.328,4.069L59.531,51.628c-0.131,0.086-0.497,0.336-1.104,0.748c-0.608,0.412-1.063,0.715-1.366,0.912
	c-0.304,0.194-0.761,0.478-1.365,0.846c-0.605,0.367-1.119,0.65-1.528,0.849c-0.413,0.192-0.879,0.397-1.397,0.617
	c-0.521,0.217-1.011,0.381-1.461,0.487c-0.457,0.108-0.904,0.162-1.337,0.162c-0.434,0-0.877-0.054-1.334-0.162
	c-0.453-0.106-0.943-0.271-1.462-0.487c-0.522-0.22-0.987-0.425-1.399-0.617c-0.412-0.195-0.923-0.479-1.529-0.849
	c-0.607-0.368-1.063-0.651-1.366-0.846c-0.305-0.197-0.759-0.5-1.365-0.912c-0.608-0.412-0.977-0.662-1.106-0.748
	c-1.691-1.129-4.5-2.93-8.427-5.402c-3.925-2.475-6.906-4.406-8.946-5.795c-1.604-1.086-3.068-2.484-4.392-4.198
	c-1.321-1.715-1.985-3.373-1.985-4.98c0-1.736,0.609-3.213,1.824-4.426c1.214-1.215,2.689-1.822,4.424-1.822h54.13
	c1.776,0,3.265,0.627,4.459,1.886c1.192,1.26,1.789,2.779,1.789,4.56C83.279,32.925,82.596,34.518,81.23,36.232z"/>
</svg>
