<?xml version="1.0" encoding="utf-8"?>
<!-- Generator: Adobe Illustrator 16.0.0, SVG Export Plug-In . SVG Version: 6.00 Build 0)  -->
<!DOCTYPE svg PUBLIC "-//W3C//DTD SVG 1.1//EN" "http://www.w3.org/Graphics/SVG/1.1/DTD/svg11.dtd">
<svg version="1.1" id="socialicious" xmlns="http://www.w3.org/2000/svg" xmlns:xlink="http://www.w3.org/1999/xlink" x="0px"
	 y="0px" width="100px" height="100px" viewBox="0 0 100 100" enable-background="new 0 0 100 100" xml:space="preserve">
<g id="linkedin_1_">
	<path fill="#2274A5" d="M54.8,45.6v-0.1C54.8,45.5,54.7,45.5,54.8,45.6L54.8,45.6z"/>
	<path fill="#2274A5" d="M89.2,0H10.8C4.8,0,0,4.8,0,10.8v78.4c0,6,4.8,10.8,10.8,10.8h78.4c6,0,10.8-4.8,10.8-10.8V10.8
		C100,4.8,95.2,0,89.2,0z M34.2,79.7H20.9v-40h13.3V79.7z M27.5,34.3L27.5,34.3c-4.5,0-7.4-3.1-7.4-6.9c0-3.9,3-6.9,7.5-6.9
		s7.3,3,7.4,6.9C35,31.3,32.1,34.3,27.5,34.3z M82.1,79.7H68.8V58.4c0-5.4-1.899-9-6.7-9c-3.699,0-5.898,2.5-6.8,4.9
		c-0.399,0.9-0.399,2-0.399,3.2v22.3H41.5c0,0,0.2-36.2,0-40h13.3v5.7c1.8-2.7,4.9-6.6,12-6.6c8.7,0,15.3,5.7,15.3,18V79.7z"/>
</g>
</svg>
