<?xml version="1.0" encoding="utf-8"?>
<!-- Generator: Adobe Illustrator 16.0.0, SVG Export Plug-In . SVG Version: 6.00 Build 0)  -->
<!DOCTYPE svg PUBLIC "-//W3C//DTD SVG 1.1//EN" "http://www.w3.org/Graphics/SVG/1.1/DTD/svg11.dtd">
<svg version="1.1" id="socialicious" xmlns="http://www.w3.org/2000/svg" xmlns:xlink="http://www.w3.org/1999/xlink" x="0px"
	 y="0px" width="100px" height="100px" viewBox="0 0 100 100" enable-background="new 0 0 100 100" xml:space="preserve">
<g id="spotify_1_">
	<path fill="#9FD356" d="M89.2,0H10.8C4.8,0,0,4.8,0,10.8v78.4c0,6,4.8,10.8,10.8,10.8h78.4c6,0,10.8-4.8,10.8-10.8V10.8
		C100,4.8,95.2,0,89.2,0z M49.9,83.4c-17.4,0-31.5-14.102-31.5-31.5c0-17.4,14.1-31.5,31.5-31.5s31.5,14.1,31.5,31.5
		C81.4,69.3,67.3,83.4,49.9,83.4z"/>
	<path fill="#9FD356" d="M67.6,53.7c-9.5-5.9-23.5-7.5-34.7-4.1c-1.3,0.4-2,1.7-1.6,3c0.4,1.301,1.7,2,3,1.602
		c9.8-3,22.5-1.5,30.8,3.6C66.2,58.5,67.7,58.1,68.4,57C69,55.9,68.7,54.4,67.6,53.7z"/>
	<path fill="#9FD356" d="M71.6,43.2C60.2,36.4,42,35.7,31.1,39c-1.5,0.5-2.4,2.1-1.9,3.6s2.1,2.4,3.6,1.9c9.5-2.9,25.9-2.3,35.9,3.6
		c1.399,0.8,3.1,0.4,4-1C73.4,45.7,73,44,71.6,43.2z"/>
	<path fill="#9FD356" d="M63.9,62.8c-8.102-5-18.2-6.1-30-3.399c-1,0.199-1.7,1.301-1.4,2.301c0.2,1,1.3,1.699,2.3,1.5
		c10.7-2.5,19.9-1.5,27.101,3C62.8,66.7,64,66.5,64.6,65.6C65.1,64.5,64.8,63.3,63.9,62.8z"/>
</g>
</svg>
